<?xml version="1.0" encoding="UTF-8" standalone="no"?>
<!DOCTYPE svg PUBLIC "-//W3C//DTD SVG 1.1//EN" "http://www.w3.org/Graphics/SVG/1.1/DTD/svg11.dtd">
<svg width="100%" height="100%" viewBox="0 0 910 408" version="1.1" xmlns="http://www.w3.org/2000/svg" xmlns:xlink="http://www.w3.org/1999/xlink" xml:space="preserve" xmlns:serif="http://www.serif.com/" style="fill-rule:evenodd;clip-rule:evenodd;stroke-miterlimit:10;">
    <g transform="matrix(1,0,0,1,-3781.65,-108.086)">
        <g transform="matrix(4.16667,0,0,4.16667,3904.94,435.203)">
            <path d="M0,-59.171C-0.007,-58.127 -0.351,-48.921 -10.25,-48.921L-12,-48.921L-12,-10.25L-10.25,-10.25C-9.206,-10.243 0,-9.898 0,0L0,1.75L159.067,1.75L159.067,0C159.074,-1.044 159.419,-10.25 169.317,-10.25L171.067,-10.25L171.067,-12L171.067,-47.171L171.067,-48.921L169.317,-48.921C168.273,-48.928 159.067,-49.272 159.067,-59.171L159.067,-60.921L157.317,-60.921L1.75,-60.921L0,-60.921L0,-59.171Z" style="fill:none;fill-rule:nonzero;stroke:rgb(89,203,149);stroke-width:3.5px;"/>
        </g>
        <g transform="matrix(4.16667,0,0,4.16667,3923.17,423.059)">
            <path d="M0,-53.341C-0.895,-48.654 -4.033,-42.752 -11.711,-41.558L-11.711,-11.711C-7.023,-10.817 -1.122,-7.678 0.073,0L150.315,0C151.209,-4.688 154.348,-10.589 162.026,-11.784L162.026,-41.63C157.338,-42.525 151.437,-45.663 150.242,-53.341L0,-53.341Z" style="fill:none;fill-rule:nonzero;stroke:rgb(89,203,149);stroke-width:1.17px;"/>
        </g>
        <g transform="matrix(4.16667,0,0,4.16667,2130.11,-61.7861)">
            <text x="435.197px" y="85.254px" style="font-family:'Uchiyama-Regular', 'Uchiyama', fantasy;font-size:20px;fill:rgb(100,193,145);">Pe</text>
            <text x="458.057px" y="85.254px" style="font-family:'Uchiyama-Regular', 'Uchiyama', fantasy;font-size:20px;fill:rgb(100,193,145);">r</text>
            <text x="469.857px" y="85.254px" style="font-family:'Uchiyama-Regular', 'Uchiyama', fantasy;font-size:20px;fill:rgb(100,193,145);"></text>
            <text x="480.677px" y="85.254px" style="font-family:'Uchiyama-Regular', 'Uchiyama', fantasy;font-size:20px;fill:rgb(100,193,145);">O</text>
            <text x="493.277px" y="85.254px" style="font-family:'Uchiyama-Regular', 'Uchiyama', fantasy;font-size:20px;fill:rgb(100,193,145);">n</text>
            <text x="504.757px" y="85.254px" style="font-family:'Uchiyama-Regular', 'Uchiyama', fantasy;font-size:20px;fill:rgb(100,193,145);"></text>
            <text x="514.277px" y="85.254px" style="font-family:'Uchiyama-Regular', 'Uchiyama', fantasy;font-size:20px;fill:rgb(100,193,145);">L</text>
            <text x="524.057px" y="85.254px" style="font-family:'Uchiyama-Regular', 'Uchiyama', fantasy;font-size:20px;fill:rgb(100,193,145);">i</text>
            <text x="529.817px" y="85.254px" style="font-family:'Uchiyama-Regular', 'Uchiyama', fantasy;font-size:20px;fill:rgb(100,193,145);">z</text>
            <text x="542.017px" y="85.254px" style="font-family:'Uchiyama-Regular', 'Uchiyama', fantasy;font-size:20px;fill:rgb(100,193,145);"></text>
            <text x="551.397px" y="85.254px" style="font-family:'Uchiyama-Regular', 'Uchiyama', fantasy;font-size:20px;fill:rgb(100,193,145);">l<tspan x="560.515px " y="85.254px ">o</tspan></text>
            <text x="430.937px" y="109.254px" style="font-family:'Uchiyama-Regular', 'Uchiyama', fantasy;font-size:20px;fill:rgb(100,193,145);">c</text>
            <text x="443.317px" y="109.254px" style="font-family:'Uchiyama-Regular', 'Uchiyama', fantasy;font-size:20px;fill:rgb(100,193,145);">o</text>
            <text x="455.797px" y="109.254px" style="font-family:'Uchiyama-Regular', 'Uchiyama', fantasy;font-size:20px;fill:rgb(100,193,145);"></text>
            <text x="472.737px" y="109.254px" style="font-family:'Uchiyama-Regular', 'Uchiyama', fantasy;font-size:20px;fill:rgb(100,193,145);">u</text>
            <text x="485.197px" y="109.254px" style="font-family:'Uchiyama-Regular', 'Uchiyama', fantasy;font-size:20px;fill:rgb(100,193,145);"></text>
            <text x="502.137px" y="109.254px" style="font-family:'Uchiyama-Regular', 'Uchiyama', fantasy;font-size:20px;fill:rgb(100,193,145);">t</text>
            <text x="511.477px" y="109.254px" style="font-family:'Uchiyama-Regular', 'Uchiyama', fantasy;font-size:20px;fill:rgb(100,193,145);">o</text>
            <text x="524.077px" y="109.254px" style="font-family:'Uchiyama-Regular', 'Uchiyama', fantasy;font-size:20px;fill:rgb(100,193,145);">P</text>
            <text x="535.477px" y="109.254px" style="font-family:'Uchiyama-Regular', 'Uchiyama', fantasy;font-size:20px;fill:rgb(100,193,145);">P</text>
            <text x="546.757px" y="109.254px" style="font-family:'Uchiyama-Regular', 'Uchiyama', fantasy;font-size:20px;fill:rgb(100,193,145);">iG</text>
        </g>
    </g>
</svg>
