<?xml version="1.0" encoding="UTF-8" standalone="no"?>
<!DOCTYPE svg PUBLIC "-//W3C//DTD SVG 1.1//EN" "http://www.w3.org/Graphics/SVG/1.1/DTD/svg11.dtd">
<svg width="100%" height="100%" viewBox="0 0 642 257" version="1.1" xmlns="http://www.w3.org/2000/svg" xmlns:xlink="http://www.w3.org/1999/xlink" xml:space="preserve" xmlns:serif="http://www.serif.com/" style="fill-rule:evenodd;clip-rule:evenodd;stroke-linejoin:round;stroke-miterlimit:2;">
    <g transform="matrix(1,0,0,1,-3215.8,-184.322)">
        <g transform="matrix(4.16667,0,0,4.16667,3265.8,440.343)">
            <path d="M0,-61.445C0,-61.445 -12,-61.445 -12,-49.445L-12,-12C-12,-12 -12,0 0,0L130.061,0C130.061,0 142.061,0 142.061,-12L142.061,-49.445C142.061,-49.445 142.061,-61.445 130.061,-61.445L0,-61.445Z" style="fill:rgb(158,140,92);fill-opacity:0;fill-rule:nonzero;"/>
        </g>
        <g transform="matrix(4.16667,0,0,4.16667,2108.35,-82.5416)">
            <text x="306.537px" y="90.235px" style="font-family:'Uchiyama-Regular', 'Uchiyama', fantasy;font-size:20px;fill:rgb(251,195,17);">a</text>
            <text x="316.017px" y="90.235px" style="font-family:'Uchiyama-Regular', 'Uchiyama', fantasy;font-size:20px;fill:rgb(251,195,17);"></text>
            <text x="329.797px" y="90.235px" style="font-family:'Uchiyama-Regular', 'Uchiyama', fantasy;font-size:20px;fill:rgb(251,195,17);">r</text>
            <text x="341.757px" y="90.235px" style="font-family:'Uchiyama-Regular', 'Uchiyama', fantasy;font-size:20px;fill:rgb(251,195,17);"><tspan x="352.117px 364.497px " y="90.235px 90.235px ">Ga</tspan></text>
            <text x="284.677px" y="114.235px" style="font-family:'Uchiyama-Regular', 'Uchiyama', fantasy;font-size:20px;fill:rgb(251,195,17);">t</text>
            <text x="295.197px" y="114.235px" style="font-family:'Uchiyama-Regular', 'Uchiyama', fantasy;font-size:20px;fill:rgb(251,195,17);">u</text>
            <text x="313.037px" y="114.235px" style="font-family:'Uchiyama-Regular', 'Uchiyama', fantasy;font-size:20px;fill:rgb(251,195,17);">P</text>
            <text x="324.437px" y="114.235px" style="font-family:'Uchiyama-Regular', 'Uchiyama', fantasy;font-size:20px;fill:rgb(251,195,17);">r</text>
            <text x="336.035px" y="114.235px" style="font-family:'Uchiyama-Regular', 'Uchiyama', fantasy;font-size:20px;fill:rgb(251,195,17);">o</text>
            <text x="347.257px" y="114.235px" style="font-family:'Uchiyama-Regular', 'Uchiyama', fantasy;font-size:20px;fill:rgb(251,195,17);"></text>
            <text x="357.977px" y="114.235px" style="font-family:'Uchiyama-Regular', 'Uchiyama', fantasy;font-size:20px;fill:rgb(251,195,17);">e</text>
            <text x="368.857px" y="114.235px" style="font-family:'Uchiyama-Regular', 'Uchiyama', fantasy;font-size:20px;fill:rgb(251,195,17);">ín</text>
        </g>
    </g>
</svg>
