<?xml version="1.0" encoding="UTF-8" standalone="no"?>
<!DOCTYPE svg PUBLIC "-//W3C//DTD SVG 1.1//EN" "http://www.w3.org/Graphics/SVG/1.1/DTD/svg11.dtd">
<svg width="100%" height="100%" viewBox="0 0 642 257" version="1.1" xmlns="http://www.w3.org/2000/svg" xmlns:xlink="http://www.w3.org/1999/xlink" xml:space="preserve" xmlns:serif="http://www.serif.com/" style="fill-rule:evenodd;clip-rule:evenodd;stroke-linejoin:round;stroke-miterlimit:2;">
    <g transform="matrix(1,0,0,1,-2598.43,-184.322)">
        <g transform="matrix(4.16667,0,0,4.16667,2648.43,440.343)">
            <path d="M0,-61.445C0,-61.445 -12,-61.445 -12,-49.445L-12,-12C-12,-12 -12,0 0,0L130.061,0C130.061,0 142.061,0 142.061,-12L142.061,-49.445C142.061,-49.445 142.061,-61.445 130.061,-61.445L0,-61.445Z" style="fill:rgb(158,140,92);fill-rule:nonzero;"/>
        </g>
        <g transform="matrix(4.16667,0,0,4.16667,2128.94,-71.8895)">
            <text x="123.877px" y="87.679px" style="font-family:'Uchiyama-Regular', 'Uchiyama', fantasy;font-size:20px;fill:white;">El</text>
            <text x="146.077px" y="87.679px" style="font-family:'Uchiyama-Regular', 'Uchiyama', fantasy;font-size:20px;fill:white;">i</text>
            <text x="151.837px" y="87.679px" style="font-family:'Uchiyama-Regular', 'Uchiyama', fantasy;font-size:20px;fill:white;">g</text>
            <text x="164.817px" y="87.679px" style="font-family:'Uchiyama-Regular', 'Uchiyama', fantasy;font-size:20px;fill:white;"></text>
            <text x="181.357px" y="87.679px" style="font-family:'Uchiyama-Regular', 'Uchiyama', fantasy;font-size:20px;fill:white;">t</text>
            <text x="193.217px" y="87.679px" style="font-family:'Uchiyama-Regular', 'Uchiyama', fantasy;font-size:20px;fill:white;"></text>
            <text x="211.337px" y="87.679px" style="font-family:'Uchiyama-Regular', 'Uchiyama', fantasy;font-size:20px;fill:white;">t</text>
            <text x="223.197px" y="87.679px" style="font-family:'Uchiyama-Regular', 'Uchiyama', fantasy;font-size:20px;fill:white;"></text>
            <text x="228.957px" y="87.679px" style="font-family:'Uchiyama-Regular', 'Uchiyama', fantasy;font-size:20px;fill:white;">P<tspan x="240.237px " y="87.679px ">o</tspan></text>
            <text x="147.757px" y="111.679px" style="font-family:'Uchiyama-Regular', 'Uchiyama', fantasy;font-size:20px;fill:white;">d</text>
            <text x="159.317px" y="111.679px" style="font-family:'Uchiyama-Regular', 'Uchiyama', fantasy;font-size:20px;fill:white;">e</text>
            <text x="175.857px" y="111.679px" style="font-family:'Uchiyama-Regular', 'Uchiyama', fantasy;font-size:20px;fill:white;">K</text>
            <text x="188.237px" y="111.679px" style="font-family:'Uchiyama-Regular', 'Uchiyama', fantasy;font-size:20px;fill:white;">e</text>
            <text x="199.117px" y="111.679px" style="font-family:'Uchiyama-Regular', 'Uchiyama', fantasy;font-size:20px;fill:white;"><tspan x="209.896px " y="111.679px ">A</tspan>b</text>
        </g>
    </g>
</svg>
